<?xml version="1.0" encoding="UTF-8" standalone="no"?>
<!-- Created with Inkscape (http://www.inkscape.org/) -->

<svg
   width="71.323166mm"
   height="12.26627mm"
   viewBox="0 0 71.323166 12.26627"
   version="1.1"
   id="svg5"
   xmlns="http://www.w3.org/2000/svg"
   xmlns:svg="http://www.w3.org/2000/svg">
  <defs
     id="defs2" />
  <g
     id="layer1"
     transform="translate(-40.083525,-124.73055)">
    <path
       d="m 50.343746,-124.73055 -0.945525,-1.13718 q -0.702754,0.47276 -1.54606,0.72831 -0.843306,0.25554 -1.763276,0.25554 -1.239404,0 -2.338257,-0.45998 -1.086076,-0.47276 -1.916605,-1.29051 -0.817751,-0.81776 -1.290513,-1.90383 -0.459985,-1.08608 -0.459985,-2.32548 0,-1.23941 0.459985,-2.32548 0.472762,-1.08608 1.290513,-1.90383 0.830529,-0.81775 1.916605,-1.27773 1.098853,-0.47277 2.338257,-0.47277 1.252181,0 2.338257,0.47277 1.086076,0.45998 1.903827,1.27773 0.830528,0.81775 1.290513,1.90383 0.472763,1.08607 0.472763,2.32548 0,1.22663 -0.459985,2.29992 -0.459985,1.0733 -1.252182,1.87828 l 1.622725,1.95493 z m -4.254861,-1.53328 q 1.303291,0 2.363812,-0.6772 l -3.258228,-3.92265 h 1.712167 l 2.555472,3.06657 q 0.523872,-0.61332 0.817751,-1.39274 0.306657,-0.79219 0.306657,-1.67383 0,-1.27774 -0.600536,-2.3127 -0.587759,-1.04775 -1.609948,-1.66106 -1.022188,-0.62609 -2.287147,-0.62609 -1.264959,0 -2.287148,0.62609 -1.009412,0.61331 -1.609948,1.66106 -0.600536,1.03496 -0.600536,2.3127 0,1.26496 0.600536,2.3127 0.600536,1.04774 1.609948,1.67384 1.022189,0.61331 2.287148,0.61331 z m 11.882939,1.30329 q -1.086076,0 -1.929382,-0.47276 -0.843306,-0.48554 -1.328846,-1.32885 -0.472762,-0.85608 -0.472762,-1.96771 v -7.88363 h 1.456619 v 7.83252 q 0,1.13718 0.651646,1.82716 0.651645,0.68998 1.648279,0.68998 0.983857,0 1.635503,-0.6772 0.664422,-0.68998 0.664422,-1.78883 v -7.88363 h 1.40551 v 7.83252 q 0,1.12441 -0.48554,1.99327 -0.472762,0.85608 -1.316068,1.34162 -0.830528,0.48554 -1.929381,0.48554 z m 6.720887,-0.15333 v -11.49962 h 5.673149 v 1.30329 h -4.21653 v 2.45325 h 3.322114 v 1.30329 H 66.14933 v 5.1365 h 4.21653 v 1.30329 z m 10.528512,0.15333 q -1.022189,0 -1.852717,-0.40888 -0.817752,-0.40887 -1.303291,-0.99663 l 0.421653,-1.76328 q 0.357766,0.71554 1.073298,1.29052 0.715532,0.57498 1.712166,0.57498 0.907193,0 1.494952,-0.57498 0.600536,-0.57498 0.600536,-1.41829 0,-0.61331 -0.29388,-1.00941 -0.293879,-0.3961 -0.664422,-0.62609 -0.370544,-0.22999 -0.587759,-0.33221 l -1.40551,-0.71554 q -0.332211,-0.17888 -0.830528,-0.49831 -0.48554,-0.31944 -0.856084,-0.88164 -0.370543,-0.5622 -0.370543,-1.45662 0,-0.86886 0.396098,-1.54606 0.408876,-0.6772 1.124408,-1.06052 0.72831,-0.38332 1.661057,-0.38332 0.91997,0 1.622725,0.33221 0.702755,0.31943 1.098853,0.66442 l -0.421653,1.76328 q -0.319434,-0.53665 -0.945525,-1.00941 -0.62609,-0.47277 -1.418287,-0.47277 -0.766641,0 -1.226626,0.45999 -0.459986,0.44721 -0.459986,1.11163 0,0.51109 0.229993,0.84331 0.24277,0.33221 0.536649,0.52387 0.306657,0.19166 0.498317,0.29388 l 1.431065,0.71553 q 0.255547,0.12777 0.638868,0.35776 0.396098,0.23 0.779419,0.61332 0.383321,0.37054 0.638868,0.91997 0.255547,0.53665 0.255547,1.30329 0,0.98386 -0.472762,1.7505 -0.459985,0.76664 -1.264959,1.20107 -0.804974,0.43443 -1.83994,0.43443 z m 4.318717,-0.15333 4.868175,-11.88295 h 0.02556 l 4.868175,11.88295 h -1.546061 l -1.3544,-3.41155 H 82.37652 l -1.367178,3.41155 z m 3.322114,-4.6254 h 3.05379 l -0.907193,-2.27437 q -0.166105,-0.43443 -0.319434,-0.85609 -0.153328,-0.42165 -0.306656,-1.00941 -0.153329,0.58776 -0.29388,1.00941 -0.140551,0.40888 -0.319434,0.85609 z m 8.279727,4.6254 v -11.49962 h 3.769322 q 1.558838,0 2.708801,0.51109 1.162739,0.51109 1.916604,1.3544 0.753862,0.84331 1.124412,1.8655 0.37054,1.00941 0.37054,2.01882 0,1.00941 -0.37054,2.0316 -0.37055,1.00941 -1.124412,1.85272 -0.753865,0.8433 -1.916604,1.3544 -1.149963,0.51109 -2.708801,0.51109 z m 1.456619,-1.30329 h 2.159375 q 1.328845,0 2.236038,-0.40888 0.907192,-0.42165 1.469396,-1.08607 0.562204,-0.6772 0.804974,-1.45662 0.255547,-0.77942 0.255547,-1.49495 0,-0.71553 -0.255547,-1.49495 -0.24277,-0.77942 -0.804974,-1.44384 -0.562204,-0.6772 -1.469396,-1.08608 -0.907193,-0.42165 -2.236038,-0.42165 H 92.5984 Z m 9.04635,1.30329 4.86817,-11.88295 h 0.0256 l 4.86817,11.88295 h -1.54606 l -1.3544,-3.41155 h -4.02487 l -1.36717,3.41155 z m 3.32211,-4.6254 h 3.05379 l -0.90719,-2.27437 q -0.16611,-0.43443 -0.31943,-0.85609 -0.15333,-0.42165 -0.30666,-1.00941 -0.15333,0.58776 -0.29388,1.00941 -0.14055,0.40888 -0.31943,0.85609 z"
       id="text398"
       style="font-size:18.3994px;font-family:Afacad;-inkscape-font-specification:'Afacad, Normal';stroke-width:2"
       transform="scale(1,-1)"
       aria-label="QUESADA" />
  </g>
</svg>
