<?xml version="1.0" encoding="UTF-8" standalone="no"?>
<!-- Created with Inkscape (http://www.inkscape.org/) -->

<svg
   width="11.95961mm"
   height="68.627068mm"
   viewBox="0 0 11.95961 68.627067"
   version="1.1"
   id="svg5"
   xmlns="http://www.w3.org/2000/svg"
   xmlns:svg="http://www.w3.org/2000/svg">
  <defs
     id="defs2" />
  <g
     id="layer1"
     transform="translate(-72.184757,-38.962281)">
    <path
       d="m -107.58935,-72.414749 v -11.499626 h 2.88768 q 1.08608,0 1.8655,0.434431 0.77941,0.43443 1.20107,1.149962 0.43443,0.702755 0.43443,1.546061 0,0.945525 -0.53665,1.699389 -0.53665,0.753864 -1.4694,1.111631 l 3.858765,5.558152 h -1.699385 l -3.65433,-5.289828 h -1.43106 v 5.289828 z m 1.45662,-6.516455 h 1.43106 q 0.74109,0 1.20107,-0.268324 0.47276,-0.281102 0.68998,-0.702755 0.22999,-0.43443 0.22999,-0.881638 0,-0.804974 -0.58776,-1.316068 -0.57498,-0.511095 -1.53328,-0.511095 h -1.43106 z m 13.250097,6.746447 q -1.239404,0 -2.338257,-0.459985 -1.086076,-0.472762 -1.916604,-1.290513 -0.817751,-0.817751 -1.290514,-1.903827 -0.459985,-1.086076 -0.459985,-2.32548 0,-1.239404 0.459985,-2.32548 0.472763,-1.086075 1.290514,-1.903827 0.830528,-0.817751 1.916604,-1.277736 1.098853,-0.472762 2.338257,-0.472762 1.252182,0 2.338257,0.472762 1.086076,0.459985 1.903827,1.277736 0.830529,0.817752 1.290514,1.903827 0.472762,1.086076 0.472762,2.32548 0,1.239404 -0.472762,2.32548 -0.459985,1.086076 -1.290514,1.903827 -0.817751,0.817751 -1.903827,1.290513 -1.086075,0.459985 -2.338257,0.459985 z m 0,-1.379955 q 1.264959,0 2.287148,-0.613313 1.022189,-0.626091 1.609947,-1.673834 0.600536,-1.047744 0.600536,-2.312703 0,-1.277736 -0.600536,-2.312702 -0.587758,-1.047744 -1.609947,-1.661057 -1.022189,-0.626091 -2.287148,-0.626091 -1.264959,0 -2.287148,0.626091 -1.009411,0.613313 -1.609947,1.661057 -0.600536,1.034966 -0.600536,2.312702 0,1.264959 0.600536,2.312703 0.600536,1.047743 1.609947,1.673834 1.022189,0.613313 2.287148,0.613313 z m 8.381943,1.149963 v -11.499626 h 3.219895 q 1.098853,0 1.737721,0.434431 0.651646,0.43443 0.932748,1.060521 0.281102,0.613313 0.281102,1.16274 0,0.62609 -0.29388,1.149962 -0.281102,0.511095 -0.766641,0.843306 0.932747,0.421653 1.507728,1.264959 0.587759,0.843306 0.587759,1.916604 0,0.907193 -0.459985,1.750499 -0.447208,0.843305 -1.341623,1.379955 -0.881638,0.536649 -2.184929,0.536649 z m 1.456619,-1.303291 h 1.661057 q 0.945525,0 1.520506,-0.370544 0.574981,-0.370543 0.843306,-0.932747 0.268325,-0.562204 0.268325,-1.11163 0,-0.53665 -0.255548,-1.098853 -0.255547,-0.562204 -0.830528,-0.932748 -0.574981,-0.383321 -1.546061,-0.383321 h -1.661057 z m 0,-6.056469 h 1.64828 q 0.753864,0 1.213849,-0.357767 0.472762,-0.370543 0.472762,-1.047743 0,-0.702755 -0.459985,-1.060521 -0.459985,-0.370544 -1.175517,-0.370544 h -1.699389 z m 8.126377,7.35976 v -11.499626 h 5.673149 v 1.303291 h -4.21653 v 2.453254 h 3.322115 v 1.303291 h -3.322115 v 5.136499 h 4.21653 v 1.303291 z m 8.088038,0 v -11.499626 h 2.887684 q 1.086075,0 1.865494,0.434431 0.779419,0.43443 1.201072,1.149962 0.434431,0.702755 0.434431,1.546061 0,0.945525 -0.53665,1.699389 -0.536649,0.753864 -1.469396,1.111631 l 3.858763,5.558152 h -1.699389 l -3.654325,-5.289828 h -1.431065 v 5.289828 z m 1.456619,-6.516455 h 1.431065 q 0.741087,0 1.201072,-0.268324 0.472762,-0.281102 0.689977,-0.702755 0.229993,-0.43443 0.229993,-0.881638 0,-0.804974 -0.587759,-1.316068 -0.574981,-0.511095 -1.533283,-0.511095 h -1.431065 z m 6.580299,-3.67988 v -1.303291 h 7.589753 v 1.303291 h -3.066567 v 10.196335 h -1.456619 v -10.196335 z m 13.825097,10.426327 q -1.239405,0 -2.338258,-0.459985 -1.086075,-0.472762 -1.916604,-1.290513 -0.817751,-0.817751 -1.290513,-1.903827 -0.459985,-1.086076 -0.459985,-2.32548 0,-1.239404 0.459985,-2.32548 0.472762,-1.086075 1.290513,-1.903827 0.830529,-0.817751 1.916604,-1.277736 1.098853,-0.472762 2.338258,-0.472762 1.252181,0 2.338257,0.472762 1.086075,0.459985 1.903827,1.277736 0.830528,0.817752 1.290513,1.903827 0.472763,1.086076 0.472763,2.32548 0,1.239404 -0.472763,2.32548 -0.459985,1.086076 -1.290513,1.903827 -0.817752,0.817751 -1.903827,1.290513 -1.086076,0.459985 -2.338257,0.459985 z m 0,-1.379955 q 1.264958,0 2.287147,-0.613313 1.022189,-0.626091 1.609948,-1.673834 0.600536,-1.047744 0.600536,-2.312703 0,-1.277736 -0.600536,-2.312702 -0.587759,-1.047744 -1.609948,-1.661057 -1.022189,-0.626091 -2.287147,-0.626091 -1.264959,0 -2.287148,0.626091 -1.009412,0.613313 -1.609948,1.661057 -0.600536,1.034966 -0.600536,2.312702 0,1.264959 0.600536,2.312703 0.600536,1.047743 1.609948,1.673834 1.022189,0.613313 2.287148,0.613313 z"
       id="text236"
       style="font-size:18.3994px;font-family:Afacad;-inkscape-font-specification:'Afacad, Normal';stroke-width:2"
       transform="matrix(0,-1,-1,0,0,0)"
       aria-label="ROBERTO" />
  </g>
</svg>
